# xmcd CD database file
#
# Track frame offsets:
#	150
#	31617
#	50820
#	77455
#	106545
#	126937
#	150155
#	193360
#	224305
#	253483
#	272956
#
# Disc length: 4336 seconds
#
# Revision: 2
# Processed by: cddbd v1.4b41PL1 Copyright (c) Steve Scherf et al.
# Submitted via: Feurio! 1.50.2ß - http://www.feurio.com
#
DISCID=9510ee0b
DTITLE=Grateful Dead - Little Red Rooster
DYEAR=1900
DGENRE=
TTITLE0=Bertha
TTITLE1=Promised Land
TTITLE2=Cold Rain and Snow
TTITLE3=Little Red Rooster
TTITLE4=Push Comes To Shove
TTITLE5=When I Paint My Masterpiece
TTITLE6=Bird Song
TTITLE7=The Music Never Stopped
TTITLE8=Hell In A Bucket
TTITLE9=That's Alright, Mama
TTITLE10=Train, Train
EXTD=
EXTT0=
EXTT1=
EXTT2=
EXTT3=
EXTT4=
EXTT5=
EXTT6=
EXTT7=
EXTT8=
EXTT9=
EXTT10=
PLAYORDER=
